<svg xmlns="http://www.w3.org/2000/svg" width="1024" height="1024" viewBox="0 0 1024 1024" style="clip-rule:evenodd;fill-rule:evenodd;stroke-linejoin:round;stroke-miterlimit:2"><g style="display:inline"><path style="fill:#000;stroke-width:1.09648" d="M615.292 248.693c-107.557.265-194.608 87.532-194.608 195.09 0 35.921 9.718 69.569 26.655 98.475l-3.741-3.742-33.05 33.05 33.05 33.051-33.05 33.05 33.054 33.05 14.073-14.072-12.323-12.327 41.125-41.125-41.125-41.13 12.323-12.323 41.13 41.125 37.956-37.96 12.327 12.327-37.96 37.96 12.639 12.635c27.411 14.692 58.73 23.044 92.006 23.044 107.745 0 195.085-87.344 195.085-195.089 0-107.744-87.34-195.089-195.085-195.089h-.48zm-3.65 92.82l9.743 5.872V375.5l17.54-9.032 8.816 5.425v8.855l-25.97 13.683v18.514l17.795-10.075v20.156l18.272-9.27v-29.011l8.816-3.845 9.262 3.845v18.51l27.252-13.682 9.522 5.43v10.495l-26.608 14.068 16.64 8.673v10.05l-8.625 4.412-25.55-14.042-17.667 10.435 17.09 9.898-17.57 9.418 18.146 8.854 25.551-13.262 8.21 5.42v9.548l-16.034 8.374 25.555 14.099v11.063l-10.842 4.59-25.07-13.268v17.593l-9.007 4.654-8.815-4.654v-26.685l-18.528-9.834v18.51l-17.796-10.075v18.515l25.105 13.262v10.496l-8.625 4.027-16.865-8.855v28.175l-9.743 5.815-9.72-5.815V520.78l-16.926 8.855-8.625-4.59v-9.898l25.1-13.271v-18.515l-18.207 10.885V474.63l-17.406 9.305v26.62l-9.522 5.486-8.049-4.95v-17.83l-26.413 13.869-11.283-4.417v-11.236l27.728-14.102-17.345-8.08v-10.318l9.842-5.006 24.88 13.627 17.28-9.28-.424-.294-17.662-9.422 17.15-9.898-17.21-9.27-24.88 13.565-9.331-4.32V428.42l16.83-8.799-26.863-13.561v-11.24l10.318-4.95 26.517 14.22v-18.095l7.98-5.005 9.747 5.243-.056 27.101 17.787 9.448-.055-19.169 18.662 9.305v-18.514l-25.105-13.271v-9.834l8.625-4.65 16.922 8.85v-28.114zm-372.788 65.253c-14.142 0-25.712 11.569-25.712 25.71v317.12c0 14.142 11.57 25.71 25.712 25.71h359.972c14.142 0 25.71-11.568 25.71-25.71v-81.082a224.908 224.908 0 01-8.763.173 224.908 224.908 0 01-8.378-.156v81.065a8.57 8.57 0 01-8.57 8.569h-122.44a17.93 17.93 0 005.364-12.817c0-4.286-1.433-8.17-3.906-11.292l-56.254-56.341c-3.645-3.541-8.41-5.833-13.657-6.474l-.095-.199h-82.749l-.095.2c-5.249.64-10.015 2.93-13.661 6.473l-56.246 56.34c-2.473 3.122-3.91 7.007-3.91 11.293 0 5.021 2.055 9.554 5.365 12.817h-17.688a8.57 8.57 0 01-8.569-8.57V492.473a8.57 8.57 0 018.57-8.569H394.47a224.908 224.908 0 01-3.607-40.12 224.908 224.908 0 013.065-37.017zm4.286 25.71a12.856 12.856 0 0112.856 12.86 12.856 12.856 0 01-12.856 12.856 12.856 12.856 0 01-12.855-12.855 12.856 12.856 0 0112.855-12.86zm42.853 0a12.856 12.856 0 0112.856 12.86 12.856 12.856 0 01-12.856 12.856 12.856 12.856 0 01-12.855-12.855 12.856 12.856 0 0112.855-12.86zm42.854 0a12.856 12.856 0 0112.855 12.86 12.856 12.856 0 01-12.855 12.856 12.856 12.856 0 01-12.856-12.855 12.856 12.856 0 0112.856-12.86zm274.776 3.01l-8.655 13.263 9.075 12.465h16.926l7.755-12.465-8.205-13.263zM366.452 583.764c-22.373.005-40.498 18.137-40.498 40.51 0 16.783 10.197 31.153 24.737 37.29a40.226 40.226 0 007.595 2.36c2.635.538 5.366.818 8.162.818a40.379 40.379 0 0019.311-4.88c12.628-6.846 21.2-20.203 21.2-35.587 0-15.384-8.58-28.76-21.209-35.618a40.262 40.262 0 00-3.533-1.71 40.355 40.355 0 00-15.756-3.183zm132.353 31.751l-22.152 22.152 33.046 33.05 22.152-22.151z"/></g></svg>