<svg xmlns="http://www.w3.org/2000/svg" width="1024" height="1024" viewBox="0 0 1024 1024" style="clip-rule:evenodd;fill-rule:evenodd;stroke-linejoin:round;stroke-miterlimit:2"><g style="display:inline"><path style="fill:#000;stroke-width:1.09648" d="M615.292 248.693c-107.557.265-194.613 87.532-194.612 195.09 0 107.743 87.344 195.088 195.089 195.088 107.744 0 195.089-87.345 195.089-195.089s-87.345-195.089-195.09-195.089h-.476zm26.941 98.978c1.826.162 3.473 1.646 3.473 3.78v35.267l-104.247 72.12c-1.082-1.738-1.741-3.768-1.741-5.954v-45.426c0-6.245 5.107-11.357 11.353-11.357h34.068l54.288-47.504a3.734 3.734 0 012.806-.927zm64.239 23.165l11.946 17.896-72.712 50.3v69.859c0 3.255-3.83 4.992-6.279 2.85l-43.632-38.182-75.938 52.535-11.942-17.891 63.55-43.966 74.24-51.362zm-467.619 35.93c-14.141 0-25.71 11.569-25.71 25.71v317.12c0 14.141 11.569 25.71 25.71 25.71h359.973c14.141 0 25.71-11.569 25.71-25.71v-81.082a224.908 224.908 0 01-8.767.173 224.908 224.908 0 01-8.375-.156v81.065a8.57 8.57 0 01-8.568 8.569H476.38a17.93 17.93 0 005.365-12.817c0-4.286-1.433-8.17-3.906-11.292l-56.25-56.341c-3.646-3.541-8.41-5.833-13.657-6.474l-.095-.199H325.084l-.096.2c-5.248.64-10.014 2.93-13.66 6.473l-56.246 56.34c-2.473 3.122-3.906 7.007-3.906 11.293 0 5.021 2.05 9.554 5.36 12.817h-17.683a8.57 8.57 0 01-8.569-8.57V492.473a8.57 8.57 0 018.57-8.569H394.47a224.908 224.908 0 01-3.612-40.12 224.908 224.908 0 013.07-37.017zm4.287 25.71a12.856 12.856 0 0112.855 12.86 12.856 12.856 0 01-12.855 12.856 12.856 12.856 0 01-12.855-12.855 12.856 12.856 0 0112.855-12.86zm42.853 0a12.856 12.856 0 0112.856 12.86 12.856 12.856 0 01-12.856 12.856 12.856 12.856 0 01-12.855-12.855 12.856 12.856 0 0112.855-12.86zm42.853 0a12.856 12.856 0 0112.856 12.86 12.856 12.856 0 01-12.856 12.856 12.856 12.856 0 01-12.855-12.855 12.856 12.856 0 0112.855-12.86zm37.606 151.288c-22.375.002-40.502 18.136-40.502 40.51 0 16.783 10.197 31.153 24.737 37.29a40.276 40.276 0 007.599 2.36c2.635.538 5.366.818 8.161.818a40.362 40.362 0 0019.308-4.88c12.628-6.846 21.203-20.203 21.203-35.587 0-15.384-8.58-28.76-21.208-35.618a40.336 40.336 0 00-3.537-1.71 40.337 40.337 0 00-15.757-3.183z"/></g></svg>