<svg xmlns="http://www.w3.org/2000/svg" width="1024" height="1024" viewBox="0 0 1024 1024" style="clip-rule:evenodd;fill-rule:evenodd;stroke-linejoin:round;stroke-miterlimit:2"><g style="display:inline"><path style="fill:#000;stroke-width:1.09648" d="M615.292 248.691c-107.557.265-194.613 87.531-194.612 195.089 0 107.744 87.345 195.089 195.089 195.089s195.089-87.345 195.089-195.089-87.345-195.089-195.09-195.089h-.475zm40.1 62.61c.924.002 1.843.132 2.732.386 24.651 7.075 46.005 20.312 62.658 37.826l-14.886 13.072c-14.17-14.647-32.285-25.697-53.275-31.72-5.296-1.52-8.357-7.045-6.837-12.34a9.976 9.976 0 019.608-7.223zm-20.91 51.748a9.961 9.961 0 012.733.39c21.826 6.263 39.667 20.105 51.114 38.28l-16.362 11.154c-8.827-14.411-22.827-25.256-40.256-30.258-5.295-1.52-8.356-7.044-6.836-12.34a9.976 9.976 0 019.608-7.226zm-56.34 6.655c1.826.162 3.477 1.642 3.477 3.775v157.445c0 3.256-3.834 4.991-6.283 2.85l-54.284-47.505h-34.068c-6.246 0-11.358-5.111-11.358-11.357v-45.42c0-6.247 5.112-11.358 11.358-11.358h34.068l54.284-47.504a3.75 3.75 0 012.806-.927zm-339.289 37.064c-14.141 0-25.71 11.57-25.71 25.71v317.12c0 14.142 11.569 25.711 25.71 25.711h359.973c14.142 0 25.71-11.57 25.71-25.711v-81.082a224.93 224.93 0 01-17.141.017v81.065a8.57 8.57 0 01-8.57 8.569h-23.1a17.922 17.922 0 005.37-12.817c0-4.285-1.433-8.17-3.906-11.292l-56.25-56.341c-3.645-3.541-8.41-5.837-13.657-6.478l-.095-.199h-7.435l-40.757 40.217 34.878 24.762-50.284 22.148H319.567l24.56-23.507-32.994-23.425 81.787-40.195h-67.836l-.096.2c-5.248.64-10.014 2.934-13.66 6.477l-56.246 56.34c-2.473 3.122-3.906 7.008-3.906 11.293 0 5.023 2.052 9.554 5.365 12.817h-17.688a8.57 8.57 0 01-8.569-8.57V492.475a8.57 8.57 0 018.57-8.569H394.47a224.898 224.898 0 01-.542-77.137zm376.807 4.438a9.962 9.962 0 012.733.39c17.307 4.967 29.179 20.918 29.179 39.034a40.87 40.87 0 01-2.529 14.098l-18.38-7.521a22.51 22.51 0 00.957-6.577c0-9.726-5.694-17.264-14.73-19.857-5.296-1.52-8.357-7.045-6.838-12.34a9.976 9.976 0 019.608-7.227zm122.49 18.796l20.125.208c.649 5.59.992 11.272.992 17.034 0 7.497-.586 14.858-1.676 22.052l-19.913-1.472a129.32 129.32 0 001.636-20.58 129.8 129.8 0 00-1.164-17.242zm-495.01 2.477c7.102 0 12.858 5.758 12.856 12.86 0 7.1-5.756 12.855-12.856 12.855s-12.855-5.755-12.855-12.855c-.002-7.102 5.754-12.86 12.855-12.86zm42.853 0c7.102 0 12.858 5.758 12.856 12.86 0 7.1-5.756 12.855-12.856 12.855s-12.855-5.755-12.855-12.855c-.002-7.102 5.754-12.86 12.855-12.86zm42.853 0c7.102 0 12.858 5.758 12.856 12.86 0 7.1-5.756 12.855-12.856 12.855s-12.855-5.755-12.855-12.855c-.002-7.102 5.754-12.86 12.855-12.86zm353.417 21.585l19.914 1.108c-1.866 38.923-27.56 71.915-64.962 82.65-5.296 1.519-10.82-1.542-12.34-6.837-1.52-5.296 1.541-10.82 6.836-12.34 29.494-8.465 49.19-33.65 50.552-64.581zM366.452 583.766c-22.375.003-40.502 18.136-40.502 40.511 0 16.783 10.201 31.152 24.741 37.29a40.218 40.218 0 007.595 2.355c2.635.537 5.366.822 8.162.822a40.365 40.365 0 0019.307-4.884c12.628-6.846 21.203-20.2 21.203-35.583 0-15.384-8.58-28.763-21.208-35.622a40.297 40.297 0 00-3.537-1.706 40.338 40.338 0 00-15.757-3.183z"/></g></svg>