<svg xmlns="http://www.w3.org/2000/svg" width="1024" height="1024" viewBox="0 0 1024 1024" style="clip-rule:evenodd;fill-rule:evenodd;stroke-linejoin:round;stroke-miterlimit:2"><g style="display:inline"><path style="fill:#000;stroke-width:1.09648" d="M615.293 248.693c-107.558.265-194.614 87.532-194.613 195.09 0 107.744 87.344 195.088 195.089 195.088 107.744 0 195.089-87.344 195.089-195.089 0-107.744-87.345-195.089-195.09-195.089h-.475zm102.484 51.41l-55.907 53.331 40.463 27.772-111.383 47.43 52.907-48.954-38.277-26.27zm-138.15 65.17c1.826.162 3.472 1.645 3.472 3.78v157.44c0 3.255-3.829 4.99-6.278 2.848l-54.288-47.503h-34.068c-6.246 0-11.358-5.107-11.358-11.353V425.06c0-6.246 5.112-11.358 11.358-11.358h34.068l54.288-47.499a3.74 3.74 0 012.014-.918c.263-.033.531-.036.792-.013zm-340.773 41.493c-14.142 0-25.712 11.57-25.712 25.71v317.12c0 14.142 11.57 25.71 25.712 25.71h359.972c14.142 0 25.71-11.568 25.71-25.71v-81.078a224.908 224.908 0 01-8.767.173 224.908 224.908 0 01-8.374-.156v81.06a8.57 8.57 0 01-8.57 8.57h-67.927V747.73c16.824-2.163 29.842-16.554 29.842-33.96v-7.603c0-.882-1.079-1.422-4.283-1.42-3.154.002-4.182.528-4.182 1.766v6.91c0 6.691-2.555 12.792-6.742 17.377l-.062-.043c-4.706 5.173-11.484 8.427-19.017 8.443-7.535-.016-14.316-3.27-19.022-8.443l-.062.043a25.687 25.687 0 01-6.742-17.376v-6.91c0-1.239-1.028-1.765-4.183-1.768-3.203-.001-4.282.54-4.282 1.42v7.604c0 17.406 13.018 31.797 29.842 33.96v10.435h-45.62a17.92 17.92 0 005.365-12.813c0-4.285-1.434-8.17-3.906-11.292l-56.25-56.345c-3.646-3.541-8.41-5.833-13.657-6.473l-.095-.2h-82.754l-.095.2c-5.248.64-10.014 2.93-13.661 6.473l-56.246 56.345c-2.472 3.122-3.905 7.007-3.905 11.292 0 5.021 2.05 9.55 5.36 12.813h-17.683a8.57 8.57 0 01-8.57-8.57V492.473a8.57 8.57 0 018.57-8.569h155.617a224.908 224.908 0 01-3.611-40.12 224.908 224.908 0 013.07-37.017zm4.286 25.71a12.856 12.856 0 0112.856 12.86 12.856 12.856 0 01-12.856 12.856 12.856 12.856 0 01-12.855-12.855 12.856 12.856 0 0112.855-12.86zm42.853 0a12.856 12.856 0 0112.856 12.86 12.856 12.856 0 01-12.856 12.856 12.856 12.856 0 01-12.855-12.855 12.856 12.856 0 0112.855-12.86zm42.854 0a12.856 12.856 0 0112.855 12.86 12.856 12.856 0 01-12.855 12.856 12.856 12.856 0 01-12.856-12.855 12.856 12.856 0 0112.856-12.86zm337.266 21.369l79.921 95.098-65.728-40.628-16.648 46.166-74.025-95.79 60.728 38.826zM366.452 583.769c-22.375.002-40.502 18.135-40.502 40.51 0 16.783 10.201 31.152 24.741 37.29a40.225 40.225 0 007.595 2.355c2.635.538 5.366.818 8.162.818a40.361 40.361 0 0019.307-4.88c12.628-6.846 21.203-20.199 21.203-35.583 0-15.384-8.58-28.763-21.208-35.622a40.297 40.297 0 00-3.537-1.706 40.339 40.339 0 00-15.757-3.182zM526.36 661.71c-9.741 0-17.649 7.908-17.649 17.65v33.747c0 9.741 7.908 17.648 17.65 17.648 9.74 0 17.652-7.907 17.652-17.648V679.36c0-9.741-7.911-17.649-17.653-17.649z"/></g></svg>