<svg xmlns="http://www.w3.org/2000/svg" style="clip-rule:evenodd;fill-rule:evenodd;stroke-linejoin:round;stroke-miterlimit:2" width="1024" height="1024" viewBox="0 0 1024 1024"><path d="M182.08 356.42c-11.563 0-20.93 9.725-21.004 21.76h-65.05c-9.253 0-16.749 9.932-16.749 22.19v177.532c0 12.257 7.497 22.192 16.748 22.192h34.787a119.929 125.013 0 0084.444 36.246 119.929 125.013 0 0084.443-36.246h30.817c9.25 0 16.746-9.936 16.746-22.192V400.367c0-12.257-7.495-22.19-16.746-22.19H266.12c-.076-12.034-9.44-21.757-21.004-21.757zm567.346 0c-11.562 0-20.928 9.725-21.004 21.758h-65.053c-9.25 0-16.746 9.938-16.746 22.195v177.53c0 2.223.254 4.368.713 6.394L691.4 552.4a99.348 103.56 0 01-8.146-41.07 99.348 103.56 0 0199.068-103.559 99.348 103.56 0 01.28 0 99.348 103.56 0 0168.763 28.82l61.934-44.837c-2.54-7.976-8.496-13.576-15.44-13.576h-64.392c-.078-12.033-9.444-21.758-21.006-21.758zm229.924 14.687l-384.268 278.2 13.15 19.736 92.145-66.711a119.929 125.013 0 0082.225 34.012 119.929 125.013 0 0084.449-36.25h30.808c9.252 0 16.752-9.936 16.752-22.192v-130.67l77.887-56.388zm-870.301 23.444a10.644 11.096 0 01.164 0 10.644 11.096 0 0110.642 11.095 10.644 11.096 0 01-10.642 11.094 10.644 11.096 0 01-10.647-11.094 10.644 11.096 0 0110.483-11.095zm105.93 13.215a99.348 103.56 0 01.277 0 99.348 103.56 0 0199.348 103.56 99.348 103.56 0 01-99.348 103.56 99.348 103.56 0 01-99.348-103.56 99.348 103.56 0 0199.07-103.56zm296.267 1.168l-1.613 58.33-106.6.15-1.84 66.598 106.6-.153-1.55 56.067 90.269-93.865zm-296.308 21.218a77.872 81.173 0 00-77.551 81.174 77.872 81.173 0 0077.87 81.174 77.872 81.173 0 0077.872-81.174 77.872 81.173 0 00-77.871-81.174 77.872 81.173 0 00-.319 0zm567.345.004a77.872 81.173 0 00-77.553 81.174 77.872 81.173 0 004.772 27.965l88.293-63.926a15.922 16.597 0 01-.889-5.469 15.922 16.597 0 0115.854-16.595 15.922 16.597 0 01.064 0 15.922 16.597 0 0110.166 3.826l10.276-7.438a77.872 81.173 0 00-50.664-19.537 77.872 81.173 0 00-.319 0zM245.37 453.305a15.922 16.597 0 01.045 0 15.922 16.597 0 01.066 0 15.922 16.597 0 0115.922 16.595 15.922 16.597 0 01-15.922 16.598 15.922 16.597 0 01-15.923-16.598 15.922 16.597 0 0115.812-16.595zm630.395 22.053a99.348 103.56 0 016.185 35.972 99.348 103.56 0 01-99.347 103.56 99.348 103.56 0 01-64.868-25.122l18.39-13.313a77.872 81.173 0 0046.478 16.045 77.872 81.173 0 0077.87-81.17 77.872 81.173 0 00-3.093-22.66z" style="fill:#000;stroke-width:4.83849"/></svg>