<svg xmlns="http://www.w3.org/2000/svg" width="1024" height="1024" viewBox="0 0 1024 1024" style="clip-rule:evenodd;fill-rule:evenodd;stroke-linejoin:round;stroke-miterlimit:2"><g style="display:inline"><path style="clip-rule:evenodd;fill:#010202;fill-rule:evenodd;stroke-width:2.42187" d="M513.294 241.395c-81.217-.714-160.252 35.064-212.22 100.584l-32.917-19.002 11.64 91.415 87.682-34.07-33.876-19.56c70.43-85.094 195.337-108.963 295.813-50.953 112.218 64.789 148.396 211.944 84.829 322.045-63.567 110.1-205.871 146.765-318.089 81.976-91.43-52.787-133.973-156.907-111.958-253.27l-33.301-19.226c-31.276 114.627 17.59 241.137 126.92 304.26 129.928 75.012 294.893 32.435 368.572-95.182 73.68-127.616 31.18-297.156-98.747-372.17-42.542-24.56-88.787-36.446-134.348-36.847zm-2.11 92.506c-97.928.445-177.286 80.077-177.286 178.097 0 98.296 79.805 178.1 178.101 178.1 98.296 0 178.1-79.804 178.1-178.1 0-98.296-79.804-178.097-178.1-178.097H511.438c-.092 0-.171-.001-.255 0zm16.616 43.092c24.945 2.893 47.834 12.55 66.8 27.09l-2.807 2.81c-6.374 6.385-6.37 16.75.028 23.132 6.387 6.382 16.756 6.378 23.136 0l3.06-3.06c15.197 18.911 25.444 41.978 28.759 67.215l-5.252-.003c-9.029 0-16.37 7.32-16.37 16.35 0 9.029 7.325 16.361 16.354 16.366l5.623.003c-2.793 25.6-12.712 49.078-27.728 68.403l-4.423-4.424c-6.383-6.386-16.749-6.387-23.133-.002-6.382 6.383-6.383 16.747 0 23.133l4.542 4.545c-19.292 15.306-42.84 25.486-68.568 28.467v-6.497c0-9.028-7.33-16.36-16.356-16.36-9.03 0-16.36 7.332-16.36 16.36v6.362c-25.556-3.179-48.917-13.46-68.042-28.805l4.046-4.049c6.373-6.386 6.37-16.754-.028-23.136-6.387-6.382-16.75-6.376-23.133 0l-3.796 3.796c-14.784-19.252-24.534-42.556-27.277-67.947h4.506c9.027 0 16.366-7.317 16.366-16.346 0-9.03-7.322-16.363-16.35-16.37h-4.13c3.293-24.889 13.333-47.66 28.22-66.418l2.435 2.438c6.383 6.387 16.752 6.387 23.136.002 6.383-6.383 6.383-16.751 0-23.136l-2.32-2.32c18.807-14.603 41.542-24.382 66.343-27.468v3.273c0 9.03 7.33 16.36 16.36 16.36 9.027 0 16.36-7.33 16.36-16.36zm-53.066 61.327a10.91 10.91 0 00-4.223.937c-5.495 2.44-7.978 8.885-5.537 14.381l32.594 73.386c.353.793.785 1.522 1.289 2.185 3.127 4.958 9.533 6.948 14.992 4.42l51.77-23.98c5.932-2.748 8.516-9.793 5.769-15.726-2.748-5.93-9.795-8.515-15.726-5.767l-42.727 19.787-28.042-63.149c-1.831-4.122-5.913-6.548-10.159-6.474z"/></g></svg>