<svg xmlns="http://www.w3.org/2000/svg" width="1024" height="1024" viewBox="0 0 1024 1024" style="clip-rule:evenodd;fill-rule:evenodd;stroke-linejoin:round;stroke-miterlimit:2"><g style="display:inline"><path style="clip-rule:evenodd;fill-rule:evenodd;stroke-width:1.5928;stroke-linejoin:round;stroke-miterlimit:2" d="M74.062 344.144c-6.772-.02-12.819 4.514-14.687 11.024-2.295 7.989 2.446 16.548 10.435 18.843 21.156 6.072 34.657 24.002 34.657 46.63 0 22.626-13.503 40.56-34.657 46.632-7.989 2.296-12.73 10.854-10.435 18.844 2.295 7.989 10.854 12.73 18.844 10.435 33.772-9.693 56.709-40.486 56.709-75.912 0-35.426-22.937-66.223-56.71-75.916l-.021-.004-.021-.004a15.235 15.235 0 00-4.096-.572zm-22.91 42.246c-6.784-.034-12.845 4.51-14.717 11.03v.003c-2.29 7.984 2.441 16.53 10.422 18.83v.005c3.27.937 4.582 2.566 4.582 6.296 0 3.73-1.302 5.342-4.578 6.282-7.983 2.299-12.711 10.856-10.422 18.84 2.288 7.991 10.844 12.736 18.836 10.449 15.801-4.532 26.633-19.14 26.633-35.57s-10.83-31.032-26.625-35.567a15.23 15.23 0 00-4.117-.598zm186.608 22.942c-30.606 0-55.456 24.847-55.456 55.453v106.017c0 30.606 24.85 55.453 55.456 55.453 30.605 0 55.453-24.847 55.453-55.453V464.785c0-30.606-24.848-55.453-55.453-55.453zM143.2 544.54c-10.064-.004-13.452 1.685-13.452 4.455v23.892c0 54.686 40.895 99.895 93.752 106.69v47.254a6.91 6.91 0 006.91 6.906h14.146a6.908 6.908 0 006.907-6.906v-47.254c52.857-6.795 93.756-52.004 93.756-106.69v-23.892c0-2.77-3.389-4.46-13.454-4.455-9.91.007-13.14 1.657-13.14 5.546v21.711c0 21.02-8.03 40.179-21.184 54.582l-.207-.125c-14.782 16.253-36.083 26.476-59.754 26.522-23.669-.046-44.965-10.269-59.748-26.522l-.213.125c-13.155-14.403-21.181-33.561-21.181-54.582v-21.71c0-3.89-3.227-5.541-13.137-5.547z"/><path style="clip-rule:evenodd;fill-rule:evenodd;stroke-width:1.55966;stroke-linejoin:round;stroke-miterlimit:2" d="M527.308 580.078l-1.55 56.065 90.27-93.865-85.267-87.127-1.612 58.33-106.6.152-1.84 66.596z"/><path d="M686.247 290.262v2.035c-5.426 2.44-9.813 6.976-11.526 12.938-3.118 10.86 3.278 22.417 14.137 25.542 40.577 11.646 66.85 46.616 66.85 89.863 0 43.248-26.274 78.214-66.85 89.86-10.859 3.124-17.255 14.68-14.137 25.541 3.122 10.862 14.68 17.264 25.542 14.146 57.685-16.555 96.744-68.944 96.744-129.547 0-60.602-39.059-113.008-96.744-129.564h-.022a20.638 20.638 0 00-5.577-.783h-.022zm-19.995 53.882c-6.772-.02-12.82 4.514-14.687 11.024-2.295 7.989 2.446 16.548 10.435 18.843 21.156 6.072 34.656 24.002 34.656 46.63 0 22.627-13.502 40.561-34.656 46.633-7.99 2.295-12.73 10.854-10.435 18.843 2.295 7.99 10.854 12.73 18.844 10.436 33.772-9.693 56.709-40.486 56.709-75.913 0-35.426-22.937-66.223-56.71-75.916l-.022-.004-.022-.004a15.236 15.236 0 00-4.096-.572zm-22.91 42.247c-6.784-.035-12.846 4.508-14.717 11.028v.004c-2.29 7.984 2.441 16.531 10.422 18.83v.005c3.27.938 4.58 2.565 4.58 6.296 0 3.729-1.3 5.343-4.576 6.282-7.983 2.3-12.711 10.856-10.422 18.84 2.288 7.992 10.843 12.736 18.835 10.448 15.801-4.532 26.634-19.14 26.634-35.57 0-16.429-10.83-31.032-26.625-35.566a15.234 15.234 0 00-4.118-.598zm237.34 22.94c-30.605 0-55.453 24.847-55.453 55.453v106.018c0 30.606 24.848 55.453 55.453 55.453 30.606 0 55.454-24.847 55.454-55.453V464.784c0-30.606-24.848-55.453-55.454-55.453zm-94.56 135.21c-10.062-.004-13.45 1.686-13.45 4.456v23.892c0 54.686 40.895 99.894 93.752 106.69v47.252a6.911 6.911 0 006.91 6.906h14.146a6.908 6.908 0 006.907-6.906v-47.253c52.856-6.795 93.755-52.003 93.755-106.689v-23.892c0-2.77-3.388-4.46-13.453-4.456-9.91.007-13.141 1.657-13.141 5.547v21.71c0 21.02-8.027 40.18-21.182 54.583l-.208-.126c-14.783 16.253-36.083 26.475-59.753 26.521-23.669-.046-44.966-10.268-59.749-26.52l-.217.125c-13.155-14.404-21.182-33.563-21.182-54.583v-21.71c0-3.89-3.226-5.54-13.133-5.547z" style="color:#000;font-style:normal;font-variant:normal;font-weight:400;font-stretch:normal;font-size:medium;line-height:normal;font-family:sans-serif;font-variant-ligatures:normal;font-variant-position:normal;font-variant-caps:normal;font-variant-numeric:normal;font-variant-alternates:normal;font-variant-east-asian:normal;font-feature-settings:normal;font-variation-settings:normal;text-indent:0;text-align:start;text-decoration:none;text-decoration-line:none;text-decoration-style:solid;text-decoration-color:#000;letter-spacing:normal;word-spacing:normal;text-transform:none;writing-mode:lr-tb;direction:ltr;text-orientation:mixed;dominant-baseline:auto;baseline-shift:baseline;text-anchor:start;white-space:normal;shape-padding:0;shape-margin:0;inline-size:0;clip-rule:nonzero;display:inline;overflow:visible;visibility:visible;isolation:auto;mix-blend-mode:normal;color-interpolation:sRGB;color-interpolation-filters:linearRGB;solid-color:#000;solid-opacity:1;vector-effect:none;fill:#000;fill-opacity:1;fill-rule:nonzero;stroke:none;stroke-width:16.7578;stroke-linecap:round;stroke-linejoin:miter;stroke-miterlimit:10;stroke-dasharray:none;stroke-dashoffset:0;stroke-opacity:1;color-rendering:auto;image-rendering:auto;shape-rendering:auto;text-rendering:auto;enable-background:accumulate;stop-color:#000"/></g></svg>