<svg xmlns="http://www.w3.org/2000/svg" width="1024" height="1024" viewBox="0 0 1024 1024" style="clip-rule:evenodd;fill-rule:evenodd;stroke-linejoin:round;stroke-miterlimit:2"><g style="display:inline"><path style="clip-rule:evenodd;fill-rule:evenodd;stroke-width:.725698;stroke-linejoin:round;stroke-miterlimit:2" d="M234.873 621.13c-28.18-3.62-52.991-18.052-70.141-38.995 6.586-4.238 14.318-9.33 23.585-14.864 14.965 16.453 36.543 26.788 60.516 26.788 45.143 0 81.793-36.65 81.793-81.794V490.34c0-3.929 3.264-5.597 13.273-5.604 10.166-.004 13.586 1.704 13.586 4.502v24.13c0 55.236-41.306 100.9-94.694 107.764v47.725a6.982 6.982 0 01-6.98 6.98h-13.957a6.983 6.983 0 01-6.981-6.98zm-39.085-90.6l-44.776 31.799c-4.362 3.097-10.416 2.07-13.513-2.291l-11.24-15.83 226.862-160.12 10.776 15.176c3.097 4.36 2.07 10.415-2.29 13.51L304.401 453.4v57.861c0 30.913-25.097 56.01-56.01 56.01-24.143 0-44.737-15.305-52.603-36.74zm-3.409-60.73v-65.624c0-30.914 25.098-56.011 56.011-56.011 26.632 0 48.948 18.627 54.618 43.554z"/><path style="clip-rule:evenodd;fill-rule:evenodd;stroke-width:.718473;stroke-linejoin:round;stroke-miterlimit:2" d="M782.935 675.835a6.913 6.913 0 01-6.91-6.91v-47.25c-52.856-6.795-93.751-52.004-93.751-106.69v-23.89c0-2.77 3.386-4.462 13.45-4.457 9.911.007 13.141 1.658 13.141 5.548v21.708c0 21.02 8.026 40.18 21.181 54.584l.21-.126c14.783 16.252 36.08 26.475 59.751 26.521 23.67-.046 44.968-10.269 59.75-26.521l.211.126c13.155-14.404 21.182-33.564 21.182-54.584v-21.708c0-3.89 3.23-5.542 13.14-5.548 10.065-.004 13.451 1.687 13.451 4.457v23.89c0 54.686-40.895 99.895-93.752 106.69v47.25a6.913 6.913 0 01-6.91 6.91zm62.25-268.955c0-30.605-24.848-55.453-55.454-55.453-30.605 0-55.453 24.848-55.453 55.453V512.9c0 30.605 24.848 55.453 55.453 55.453 30.606 0 55.454-24.848 55.454-55.453z"/><path style="clip-rule:evenodd;fill-rule:evenodd;stroke-width:.703525;stroke-linejoin:round;stroke-miterlimit:2" d="M526.929 522.174l-1.55 56.065 90.27-93.864-85.267-87.128-1.612 58.33-106.6.152-1.84 66.597z"/></g></svg>