<svg xmlns="http://www.w3.org/2000/svg" width="1024" height="1024" viewBox="0 0 1024 1024" style="clip-rule:evenodd;fill-rule:evenodd;stroke-linejoin:round;stroke-miterlimit:2"><g style="display:inline"><path style="fill:#000;stroke-width:.152179" d="M230.403 330.567v30.66h77.737v-30.66zm112.617 0v30.66H680.39v-30.66zm465.176 31.483a19.925 19.925 0 00-1.056.03 19.925 19.925 0 00-18.457 15.405 19.925 19.925 0 0014.915 23.91c19.228 4.452 32.01 19.672 33.068 40.04 1.056 20.367-10.084 36.842-28.743 43.257a19.925 19.925 0 00-4.241 2.051c-3.324-.78-7.008-1.242-11.058-1.34l-18.212-46.92-44.025 95.493 100.536 50.095-17.507-45.097c4.663-6.021 7.88-11.9 9.735-17.429 33.622-12.674 55.191-45.892 53.308-82.179-1.925-37.099-27.9-68.47-63.871-76.797a19.925 19.925 0 00-4.392-.512zm-624.77 19.146v19.97h46.977v11.58h77.737v-11.58h34.88v11.58H680.39v-11.58H723.7v-19.97H230.403zm46.977 89.718v82.173h77.737v-82.173zm112.617 0v82.173h338.277v-82.173zm-112.617 140.34v82.18h77.737v-82.18zm112.617 0v82.18h338.033v-82.18z"/></g></svg>