<svg xmlns="http://www.w3.org/2000/svg" width="1024" height="1024" viewBox="0 0 1024 1024" style="clip-rule:evenodd;fill-rule:evenodd;stroke-linejoin:round;stroke-miterlimit:2"><g style="display:inline"><path d="M757.993 356.42c-11.563 0-20.929 9.724-21.003 21.759h-65.051c-9.252 0-16.747 9.933-16.747 22.19v177.533c0 12.258 7.495 22.191 16.747 22.191h34.786a119.929 125.013 0 0084.444 36.246 119.929 125.013 0 0084.445-36.246h30.815c9.25 0 16.747-9.933 16.747-22.19V400.368c0-12.257-7.496-22.19-16.747-22.19h-64.395c-.075-12.035-9.44-21.759-21.004-21.759zm-72.867 38.13a10.644 11.096 0 0110.642 11.096 10.644 11.096 0 01-10.642 11.095 10.644 11.096 0 01-10.647-11.095 10.644 11.096 0 0110.647-11.096zm105.766 13.216a99.348 103.56 0 01.277 0 99.348 103.56 0 0199.349 103.56 99.348 103.56 0 01-99.349 103.56 99.348 103.56 0 01-99.348-103.56 99.348 103.56 0 0199.071-103.56zm-.04 22.386a77.872 81.173 0 00-77.553 81.174 77.872 81.173 0 0077.871 81.175 77.872 81.173 0 0077.871-81.175 77.872 81.173 0 00-77.87-81.174 77.872 81.173 0 00-.319 0zm30.477 23.153a15.922 16.597 0 01.064 0 15.922 16.597 0 0115.923 16.596 15.922 16.597 0 01-15.923 16.597A15.922 16.597 0 01805.47 469.9a15.922 16.597 0 0115.858-16.596zM183.912 356.42c-11.563 0-20.928 9.725-21.005 21.759h-65.05c-9.252 0-16.748 9.937-16.748 22.194v177.53c0 2.224.254 4.367.714 6.393l44.063-31.895a99.348 103.56 0 01-8.147-41.07 99.348 103.56 0 0199.07-103.56 99.348 103.56 0 01.278 0 99.348 103.56 0 0168.766 28.82l61.932-44.838c-2.54-7.976-8.495-13.574-15.439-13.574h-64.394c-.078-12.034-9.442-21.759-21.004-21.759zm229.922 14.688L29.568 649.306l13.15 19.736 92.143-66.71a119.929 125.013 0 0082.226 34.011 119.929 125.013 0 0084.448-36.25h30.811c9.251 0 16.751-9.933 16.751-22.19v-130.67l77.888-56.39zM216.77 430.156a77.872 81.173 0 00-77.553 81.175 77.872 81.173 0 004.771 27.964l88.294-63.925a15.922 16.597 0 01-.89-5.469 15.922 16.597 0 0115.855-16.596 15.922 16.597 0 01.064 0 15.922 16.597 0 0110.165 3.825l10.276-7.437a77.872 81.173 0 00-50.665-19.537 77.872 81.173 0 00-.318 0zm93.48 45.201a99.348 103.56 0 016.186 35.974 99.348 103.56 0 01-99.348 103.56 99.348 103.56 0 01-64.867-25.123l18.39-13.313a77.872 81.173 0 0046.477 16.045 77.872 81.173 0 0077.871-81.17 77.872 81.173 0 00-3.095-22.66z" style="fill:#000;stroke-width:10.7265"/><path d="M512.54 533.86l-1.55 56.066 90.271-93.865-85.267-87.128-1.612 58.33-106.6.153-1.84 66.596z"/></g></svg>