<svg xmlns="http://www.w3.org/2000/svg" width="1024" height="1024" viewBox="0 0 1024 1024" style="clip-rule:evenodd;fill-rule:evenodd;stroke-linejoin:round;stroke-miterlimit:2"><g style="display:inline"><path style="fill:#000;stroke-width:.380338" d="M90.702 417.564a18.573 18.573 0 00-18.61 18.614v163.64c0 10.311 8.3 18.612 18.61 18.612h42.12l-59.314 58.737L222.21 618.43h85.543c10.31 0 18.61-8.3 18.61-18.611V436.178c0-10.31-8.3-18.614-18.61-18.614zm89.201 32.662h38.614l-4.249 97.917h-30.116zm.649 113.16h37.317v24.385h-37.317z"/><path style="clip-rule:evenodd;fill:#010202;fill-rule:evenodd;stroke-width:4.55735" d="M764.692 346.833c-11.215 0-20.208 6.772-20.208 15.157 0 1.819.508 3.435 1.205 5.052h-31.512v20.204h101.03v-20.204h-31.522c.697-1.617 1.215-3.233 1.215-5.052 0-8.385-9.094-15.157-20.208-15.157zm0 10.103c5.557 0 10.102 3.033 10.102 6.771 0 3.637-4.545 6.669-10.102 6.669-5.567 0-10.102-3.032-10.102-6.669 0-3.738 4.535-6.771 10.102-6.771zm-90.928 20.208c-11.215 0-20.208 9.091-20.208 20.205V649.93c0 11.114 8.993 20.208 20.208 20.208h182.252c11.214 0 20.205-9.094 20.205-20.208v-110.02l-13.99 14.758-6.611 1.757v83.403H673.764V417.557H855.62v59.945l20.6-22.143v-58.01c0-11.114-8.99-20.205-20.204-20.205h-30.703v20.205H704.071v-20.205zm286.132 9.727c-5.128 0-10.267 2.099-14.218 6.297l-10.65 11.229 29.335 29.334 9.683-10.359c7.817-8.299 7.817-21.905 0-30.204-3.908-4.198-9.022-6.297-14.15-6.297zm-31.976 25.211l-92.737 99.01 28.362 30.205 93.713-99.88zM692.198 467.37v11.805h76.733V467.37zm0 47.218v11.805H818.38l2.509-11.56.228-.245zm135.93 3.26l-10.317 41.399 41.4-10.325zm-135.93 26.255v11.806h119.777l2.563-11.806zm0 29.512v11.805h141.658v-11.805z"/><path style="clip-rule:evenodd;fill-rule:evenodd;stroke-width:.703525;stroke-linejoin:round;stroke-miterlimit:2" d="M503.689 564.192l-1.55 56.065 90.27-93.865-85.267-87.127-1.612 58.33-106.599.152-1.841 66.596z"/></g></svg>