<svg xmlns="http://www.w3.org/2000/svg" style="clip-rule:evenodd;fill-rule:evenodd;stroke-linejoin:round;stroke-miterlimit:2" width="1024" height="1024" viewBox="0 0 1024 1024"><g style="display:inline"><path d="M512 255.583c141.52 0 256.415 114.896 256.415 256.416 0 141.522-114.895 256.418-256.415 256.418-141.52 0-256.415-114.896-256.415-256.418 0-141.52 114.896-256.416 256.415-256.416zM509.225 599.1c23.67 0 42.888 19.217 42.888 42.888 0 23.67-19.217 42.89-42.888 42.89-23.673 0-42.89-19.22-42.89-42.89s19.217-42.888 42.89-42.888zM404.621 415.233s32.114 13.91 58.429 25.563c18.72-36.182 89.063-34.753 89.063 13.744 0 59.315-77.793 22.716-77.793 82.03 0 14.162.317 42.481.317 42.481h64.62v-26.229s80.436-10.138 80.436-97.95c0-87.811-75.023-107.37-110.468-107.37-81.765 0-104.604 67.731-104.604 67.731z" style="clip-rule:evenodd;fill-rule:evenodd;stroke-width:.329337;stroke-linejoin:round;stroke-miterlimit:2"/></g></svg>