<svg xmlns="http://www.w3.org/2000/svg" width="1024" height="1024" viewBox="0 0 1024 1024" style="clip-rule:evenodd;fill-rule:evenodd;stroke-linejoin:round;stroke-miterlimit:2"><g style="display:inline"><path style="clip-rule:evenodd;fill-rule:evenodd;stroke-width:.224469;stroke-linejoin:round;stroke-miterlimit:2" d="M721.589 242.804c-77.763 0-140.961 63.198-140.961 140.961s63.198 140.956 140.96 140.956c77.764 0 140.961-63.193 140.961-140.956 0-77.763-63.197-140.96-140.96-140.96zm-23.495 70.479h46.989v46.988h46.984v46.984h-46.984v46.988h-46.989v-46.988h-46.988V360.27h46.988zm-166.459 43.663c-117.074 0-212.123 95.053-212.123 212.127 0 117.074 95.049 212.123 212.123 212.123 117.074 0 212.127-95.05 212.127-212.123 0-6.598-.319-13.122-.91-19.567a171.349 171.349 0 01-21.956 1.411 171.349 171.349 0 01-33.241-3.251h-.464c-10.752.007-19.481 8.74-19.475 19.493 0 10.754 8.74 19.479 19.493 19.472h5.365c-3.267 30.241-14.879 58.001-32.488 80.93l-4.516-4.525c-7.6-7.606-19.948-7.61-27.556-.007-7.605 7.6-7.611 19.945 0 27.55l4.82 4.824c-22.778 18.276-50.605 30.524-81.043 34.31v-7.581c0-10.752-8.727-19.48-19.48-19.48s-19.485 8.728-19.485 19.48v7.746c-30.642-3.551-58.69-15.682-81.667-33.912l5.408-5.408c7.603-7.606 7.601-19.953 0-27.555-7.604-7.605-19.949-7.601-27.551.004l-5.27 5.265c-17.884-23.016-29.693-50.976-33.02-81.467l6.699-.005c10.753-.004 19.476-8.74 19.471-19.493 0-10.754-8.743-19.477-19.497-19.472h-6.257c3.948-30.057 16.158-57.528 34.258-80.051l3.646 3.641c7.6 7.608 19.944 7.616 27.551.016 7.606-7.601 7.611-19.945 0-27.551l-3.342-3.347c22.588-17.318 49.852-28.825 79.562-32.271v4.061c0 10.754 8.732 19.48 19.485 19.48 10.754 0 19.484-8.726 19.484-19.48v-3.901c.07.008.146.023.222.031a171.349 171.349 0 01-2.46-28.893 171.349 171.349 0 011.386-21.737 214.104 214.104 0 00-18.324-.883c-.1-.002-.201-.004-.307-.004h-.164zm-139.852 10.807c-109.192 2.252-197.146 91.592-197.146 201.32 0 109.727 87.954 199.063 197.146 201.315a247.544 247.544 0 01-60.541-61.944 153.735 153.735 0 01-30.617-18.909l5.135-5.135a18.416 18.416 0 005.335-11.517 247.544 247.544 0 01-6.655-15.835c-7.264-5.995-18.044-5.6-24.837 1.195l-5 5.001c-16.978-21.85-28.196-48.396-31.354-77.34h6.36c10.21-.005 18.495-8.303 18.49-18.511 0-10.209-8.302-18.485-18.51-18.48h-5.937c3.747-28.534 15.335-54.617 32.518-76l3.464 3.465c7.214 7.222 18.935 7.226 26.157.015.322-.322.61-.665.905-1.004a247.544 247.544 0 014.394-10.106c.572-5.367-1.185-10.935-5.3-15.047l-3.173-3.173a153.843 153.843 0 0128.612-17.342 247.544 247.544 0 0160.554-61.965zM576.02 481.318c-5.057-.088-9.917 2.798-12.098 7.707l-33.405 75.215-50.885-23.567c-7.064-3.273-15.46-.193-18.732 6.871-3.272 7.066-.193 15.46 6.872 18.732l61.658 28.56c6.503 3.01 14.132.638 17.857-5.265.6-.79 1.117-1.663 1.537-2.607l38.817-87.4c2.908-6.546-.047-14.226-6.594-17.133a12.908 12.908 0 00-5.027-1.113z"/></g></svg>