<svg xmlns="http://www.w3.org/2000/svg" width="1024" height="1024" viewBox="0 0 1024 1024" style="clip-rule:evenodd;fill-rule:evenodd;stroke-linejoin:round;stroke-miterlimit:2"><g style="display:inline"><path style="fill:#000;stroke-width:.19741" d="M474.457 754.484c-59.541-9.774-102.594-53.327-110.066-111.344-3.236-25.12-9.625-212.579-7.324-214.882 2.517-2.519 26.742 7.948 33.972 14.679 8.717 8.114 9.865 13.278 12.436 55.913 1.303 21.62 2.771 43.575 3.261 48.789l.892 9.48 9.535 3.434c35.524 12.796 56.977 44.803 52.435 78.232-2.205 16.223 11.196 25.438 19.203 13.205 3.826-5.846 3.697-37.615-.206-50.468-8.12-26.745-29.948-48.773-54.77-55.27-4.28-1.12-4.132-7.797 1.462-65.722 5.259-54.454 22.606-172.762 26.367-179.82 4.366-8.194 19.582-11.265 28.587-5.769 10.306 6.29 10.357 2.568-1.333 96.416-5.808 46.627-10.332 85.003-10.054 85.282 1.127 1.128 19.728 3.057 20.315 2.107.347-.563 6.228-46.085 13.067-101.16 13.377-107.718 12.428-103.206 22.726-108.097 9.754-4.633 24.581.371 29.751 10.042.991 1.853-2.683 36.109-11.525 107.464-7.139 57.61-12.751 104.973-12.472 105.252.28.28 4.564.65 9.521.824l9.014.316 10.986-88.798c6.628-53.572 11.812-90.122 13.068-92.135 6.261-10.035 25.828-8.679 33.661 2.333l3.125 4.392-12.196 98.63c-9.304 75.254-11.752 98.91-10.328 99.817 2.162 1.375 14.976 1.67 14.976.344 0-15.96 17.596-137.773 20.219-139.965 14.02-11.72 36.453-2.608 34.546 14.032-.453 3.947-2.907 27.67-5.455 52.72-10.547 103.694-20.614 172.115-30.844 209.64-18.328 67.23-87.462 111.43-156.553 100.088z"/></g></svg>