<svg xmlns="http://www.w3.org/2000/svg" width="1024" height="1024" viewBox="0 0 1024 1024" style="clip-rule:evenodd;fill-rule:evenodd;stroke-linejoin:round;stroke-miterlimit:2"><g style="display:inline"><path style="clip-rule:evenodd;fill-rule:evenodd;stroke-width:.258501;stroke-linejoin:round;stroke-miterlimit:2" d="M507.284 256.413c-75.709 0-96.856 62.715-96.856 62.715s29.733 12.881 54.098 23.672c17.334-33.502 82.468-32.18 82.468 12.725 0 54.921-72.033 21.035-72.033 75.956 0 13.112.295 39.333.295 39.333h59.835v-24.287s74.479-9.387 74.479-90.694c0-81.308-69.466-99.42-102.286-99.42zm-.104 230.582a39.711 39.711 0 00-39.463 36.32h79.13a39.711 39.711 0 00-39.568-36.32 39.711 39.711 0 00-.1 0zm-147.196 54.95v83.694c0 78.342 63.6 141.948 141.944 141.948 71.221 0 130.26-52.566 140.406-120.987h17.333c29.874 0 54.128-24.258 54.128-54.133 0-23.032-14.425-42.708-34.717-50.521H470.614zm282.519 31.345h13.38c11.606 0 21.025 7.406 21.025 19.013 0 11.608-9.42 19.008-21.026 19.008h-13.38z"/></g></svg>