<svg xmlns="http://www.w3.org/2000/svg" width="1024" height="1024" viewBox="0 0 1024 1024" style="clip-rule:evenodd;fill-rule:evenodd;stroke-linejoin:round;stroke-miterlimit:2"><g style="display:inline"><path style="clip-rule:evenodd;fill:#010202;fill-rule:evenodd;stroke-width:2.68055" d="M515.067 192.451c-40.132.005-72.647 32.532-72.647 72.665 0 30.102 18.293 55.877 44.373 66.884a72.185 72.185 0 0013.626 4.227 73.16 73.16 0 0014.635 1.472c12.543 0 24.354-3.173 34.64-8.755 22.65-12.28 38.025-36.234 38.025-63.828s-15.389-51.59-38.039-63.892a72.244 72.244 0 00-6.343-3.061c-8.683-3.675-18.231-5.71-28.261-5.712zM440.87 348.995l-.173.36c-9.413 1.148-17.962 5.259-24.503 11.613l-52.527 52.613c38.645-10.414 99.057-23.896 156.804-25.114 50.992-.923 99.96 6.918 135.717 14.8l-42.23-42.3c-6.538-6.35-15.084-10.463-24.494-11.612l-.169-.36H446.04zm81.86 60.693c-3.235-.007-6.48.023-9.733.078-99.316 2.095-206.572 38.97-206.572 38.97S256.307 761.561 514.863 828.82c267.587-81.296 198.653-387.835 198.653-387.835s-90.475-31.07-190.785-31.297zm-.134 39.593c81.788-.104 152.971 22.922 152.971 22.922s57.2 251.435-161.315 317.856c-211.434-54.897-171.184-311.36-171.184-311.36s90.495-27.865 171.582-29.332c2.658-.054 5.307-.083 7.946-.086zm-3.205 23.295c-2.265-.007-4.537.008-6.815.047-69.374 1.466-144.572 27.24-144.572 27.24s-35.013 218.955 146.018 266.099C701.34 708.97 652.961 494.415 652.961 494.415s-63.34-21.631-133.57-21.84zm-82.017 45.98h60.36v168.658h-60.36zm98.082 0h60.358v168.658h-60.358z"/></g></svg>