<svg xmlns="http://www.w3.org/2000/svg" width="1024" height="1024" viewBox="0 0 1024 1024" style="clip-rule:evenodd;fill-rule:evenodd;stroke-linejoin:round;stroke-miterlimit:2"><g style="display:inline"><path style="clip-rule:evenodd;fill:#010202;fill-rule:evenodd;stroke-width:2.68055" d="M533.42 191.342c-39.398 0-71.323 31.925-71.323 71.323 0 39.397 31.925 71.249 71.323 71.249 39.397 0 71.249-31.852 71.249-71.25 0-39.397-31.852-71.322-71.25-71.322zm237.578.849c-7.5.102-15.653 3.345-23.217 10.963l-51.5 91.574-90.019 50.27h-140.61c-11.3 0-21.678 4.355-29.296 11.756l-46.044 46.118a843.922 843.922 0 0113.838-3.03c33.13-6.963 71.832-12.96 109.417-13.753 38.153-.69 75.228 3.524 106.456 8.993 4.46.782 8.802 1.59 13.011 2.412l100.108-60.406 54.254-94.358c13.827-28.226 6.102-50.843-16.398-50.539zm-248.59 217.505c-3.235-.007-6.48.016-9.733.07C413.36 411.862 306.1 448.74 306.1 448.74s-50.118 312.822 208.438 380.08C782.124 747.524 713.19 440.985 713.19 440.985s-90.47-31.065-190.78-31.292zm-.134 39.593c81.788-.104 152.972 22.922 152.972 22.922s57.2 251.431-161.316 317.851c-211.434-54.896-171.183-311.356-171.183-311.356s90.494-27.868 171.581-29.335c2.659-.055 5.307-.079 7.946-.082zm-3.204 23.29c-2.266-.006-4.538.008-6.816.047-69.374 1.467-144.576 27.24-144.576 27.24s-35.009 218.956 146.023 266.1c187.317-56.992 138.938-271.547 138.938-271.547s-63.339-21.631-133.57-21.84zm74.197 61.529l28.682 28.685L490.37 694.57l-1.022-1.204-1.204 1.204-66.793-66.992 28.681-28.682 39.316 39.515z"/></g></svg>