<svg xmlns="http://www.w3.org/2000/svg" width="1024" height="1024" viewBox="0 0 1024 1024" style="clip-rule:evenodd;fill-rule:evenodd;stroke-linejoin:round;stroke-miterlimit:2"><g style="display:inline"><path style="clip-rule:evenodd;fill:#000;fill-rule:evenodd;stroke-width:2.68055;stroke-linejoin:round;stroke-miterlimit:2" d="M643.434 124.908c-16.19 0-29.314 13.124-29.314 29.314.273 20.234 46.106 67.851 56.497 67.841 10.216.082 54.155-45.729 54.059-67.841 0-16.19-13.124-29.314-29.314-29.314a29.317 29.317 0 00-25.966 15.705 29.31 29.31 0 00-25.962-15.705zm-342.986 14.58c-24.391 0-44.161 19.774-44.161 44.164.41 30.484 69.46 102.22 85.113 102.204 15.391.123 81.587-68.89 81.441-102.204 0-24.39-19.77-44.165-44.16-44.165a44.165 44.165 0 00-39.117 23.663 44.165 44.165 0 00-39.116-23.663zm234.672 51.854c-39.397 0-71.322 31.925-71.322 71.323 0 39.397 31.925 71.249 71.322 71.249 39.398 0 71.25-31.852 71.25-71.25 0-39.397-31.852-71.322-71.25-71.322zm237.583.849c-7.5.102-15.653 3.345-23.217 10.963l-51.504 91.578-90.015 50.266h-140.61c-11.3 0-21.678 4.355-29.296 11.756l-46.044 46.118c35.887-8.173 80.301-15.877 123.255-16.783 43.604-.79 85.798 4.831 119.467 11.405l100.103-60.407 54.259-94.357c13.827-28.226 6.102-50.843-16.398-50.539zm-8.954 163.74c-13.81 0-25.005 11.196-25.005 25.006.233 17.258 39.33 57.873 48.192 57.865 8.714.07 46.192-39.004 46.11-57.865 0-13.81-11.197-25.006-25.006-25.006-9.299 0-17.831 5.161-22.148 13.397a25 25 0 00-22.143-13.397zm-239.635 53.765c-3.236-.007-6.485.016-9.738.07-99.316 2.096-206.572 38.974-206.572 38.974s-50.118 312.822 208.438 380.08c267.587-81.296 198.652-387.835 198.652-387.835s-90.47-31.065-190.78-31.292zm-.135 39.593c81.788-.104 152.967 22.922 152.967 22.922s57.205 251.431-161.311 317.851c-211.433-54.896-171.182-311.356-171.182-311.356s90.494-27.868 171.581-29.335c2.659-.055 5.307-.079 7.946-.082zm-3.205 23.29c-2.265-.006-4.537.008-6.815.047-69.374 1.467-144.576 27.24-144.576 27.24s-35.013 218.956 146.018 266.1C702.718 708.973 654.34 494.418 654.34 494.418s-63.335-21.631-133.566-21.84zm-16.146 26.495a.599.599 0 01.43.07c.516.26 12.487 6.206 21.96 21.356 8.776 13.857 16.965 38.499 5.941 76.566-3.97 18 3.525 32.478 7.582 38.67-.947-4.22-2.25-11.455-2.07-19.723.345-12.143 4.05-28.844 19.983-39.61.25-.18.508-.18.775 0 .25.25.346.595.251.94 0 .259-5.935 32.135 4.486 46.863 8.957 12.738 17.826 34.79 13.003 55.288-3.962 17.14-16.447 30.232-37.116 38.844-5.34 1.99-10.336 3.445-15.943 4.65-.43.086-.776-.17-.853-.601-.087-.431.088-.863.346-1.035 10.68-5.426 21.613-16.7 13.431-39.532-7.742-19.628-6.274-29.797-4.732-34.19-4.048 2.67-11.974 9.558-9.994 21.615 0 .345-.084.69-.342.87-.25.251-.595.173-.862 0-.258-.258-24.114-23.337-13.262-51.586-5.426 3.617-19.552 16.268-11.197 45.378 2.747 12.488-4.834 21.444-5.179 21.874-.25.26-.59.345-.857.096-.345-.259-.433-.686-.347-1.03.258-.776 5.942-18.691-6.373-28.596.688 4.651 1.72 16.02-2.672 22.222-3.962 5.512-7.748 14.727-6.637 23.598.87 6.287 3.961 11.627 9.482 15.76.345.25.428.687.247 1.118-.164.336-.504.588-.849.416-13.521-5.254-31.179-15.59-38.93-35.484-5.676-14.641-4.988-32.117 2.16-52.106 21.437-54.431 7.582-71.913 7.487-72.085-.25-.345-.345-.768-.173-1.121.258-.345.604-.433.949-.347.25.172 30.14 14.731 26.351 47.114 8.182-8.612 46.423-52.96 23.083-104.979-.173-.344-.173-.785.095-1.035a.546.546 0 01.347-.25z"/></g></svg>