<svg xmlns="http://www.w3.org/2000/svg" width="1024" height="1024" viewBox="0 0 1024 1024" style="clip-rule:evenodd;fill-rule:evenodd;stroke-linejoin:round;stroke-miterlimit:2"><g style="display:inline"><path style="clip-rule:evenodd;fill:#010202;fill-rule:evenodd;stroke-width:2.68055" d="M529.668 195.18c-39.397 0-71.322 31.925-71.322 71.322 0 39.398 31.925 71.249 71.322 71.249 39.398 0 71.249-31.851 71.249-71.249 0-39.397-31.851-71.322-71.249-71.322zm156.983 5.78c-11.727.805-14.245 11.093-16.173 18.007l12.894 84.53-80.861 45.339H461.9c-2.737 0-5.417.265-8.02.757l-103.896-30.206 2.12-109.085c-7.564-7.618-14.308-9.453-21.808-9.554-22.5-.304-20.362 24.426-21.328 50.538l-2.89 94.358 80.48 61.065a843.833 843.833 0 0113.84-3.03c33.13-6.963 71.832-12.96 109.417-13.753 38.153-.69 75.227 3.524 106.455 8.993 4.461.782 8.803 1.59 13.011 2.412l98.7-76.608-10.845-78.156c-1.67-26.112-8.037-47.15-30.486-45.608zM523.849 411.774c-3.236-.006-6.48.024-9.734.079-99.316 2.095-206.572 38.969-206.572 38.969S276.883 642.25 387.3 757.81l23.884-24.321c-91.802-94.494-66.997-252.703-66.997-252.703s90.495-27.864 171.582-29.331c2.658-.055 5.307-.084 7.946-.087 32.805-.039 63.803 3.653 89.287 8.075l49.794-30.56c-35.628-8.224-85.831-16.987-138.947-17.108zM733.3 453.797l-35.808 29.483c15.269 5.642 24.303 9.742 24.303 9.742s27.943 256.34-196.755 297.223c-30.841-11.931-55.39-27.805-74.9-46.127l-34.366 14.177c25.712 28.362 59.973 52.92 105.416 70.525 275.154-50.023 241.887-362.449 241.887-362.449s-11.128-5.287-29.777-12.574zm-212.79 20.866c-2.265-.007-4.537.008-6.815.047-69.374 1.467-144.572 27.24-144.572 27.24s-21.628 135.393 57.16 216.166l65.243-66.434-21.931-104.23 110.73-67.953c-18.315-2.759-38.732-4.774-59.815-4.837zm153.206 28.192l-79.38 65.36 10.378 112.124-132.08 54.496c15.044 12.291 33.166 23.005 54.943 31.448 192.623-35.099 169.209-253.79 169.209-253.79s-8.617-4.096-23.07-9.638z"/></g></svg>